<?xml version="1.0" standalone="no"?>
<!DOCTYPE svg PUBLIC "-//W3C//DTD SVG 20010904//EN"
 "http://www.w3.org/TR/2001/REC-SVG-20010904/DTD/svg10.dtd">
<svg version="1.0" xmlns="http://www.w3.org/2000/svg"
 width="1413.000000pt" height="382.000000pt" viewBox="0 0 1413.000000 382.000000"
 preserveAspectRatio="xMidYMid meet">

<g transform="translate(0.000000,382.000000) scale(0.100000,-0.100000)"
fill="#000000" stroke="none">
<path d="M0 1910 l0 -1910 7065 0 7065 0 0 1910 0 1910 -7065 0 -7065 0 0
-1910z m4415 1810 c4 -6 -27 -10 -87 -10 -64 0 -88 3 -78 10 20 13 157 13 165
0z m-2185 -265 c0 -8 -2 -15 -4 -15 -2 0 -11 -3 -20 -6 -10 -4 -16 -1 -16 9 0
14 13 24 33 26 4 1 7 -6 7 -14z m-29 -1928 c-12 -12 -41 8 -41 29 0 12 5 11
26 -2 17 -11 22 -20 15 -27z"/>
</g>
</svg>
