<?xml version="1.0" encoding="utf-8"?>
<!-- Generator: Adobe Illustrator 22.0.1, SVG Export Plug-In . SVG Version: 6.00 Build 0)  -->
<svg version="1.1" id="Layer_1" xmlns="http://www.w3.org/2000/svg" xmlns:xlink="http://www.w3.org/1999/xlink" x="0px" y="0px"
	 viewBox="0 0 394.7 109.3" style="enable-background:new 0 0 394.7 109.3;" xml:space="preserve">
<style type="text/css">
	.st0{fill:#FDFEFE;}
	.st1{fill:#0D7D3C;}
	.st2{fill:#4D4D4D;}
	.st3{fill:#6A6A6A;}
	.st4{fill:#9B9B9B;}
	.st5{fill:#148142;}
	.st6{fill:#979797;}
	.st7{fill:#FCFDFC;}
</style>
<g>
	<g>
		<path class="st0" d="M2.5,106.1c0-35,0-70,0-105c129.3,0,258.5,0,387.8,0c0,35,0,70,0,105C261.1,106.1,131.8,106.1,2.5,106.1z
			 M38.6,70.5L38.6,70.5c1,1.4,2,2.8,3.1,4.2l0,0c0.1,0.2,0.1,0.5,0.2,0.6c4.3,4.7,8.4,9.5,13,13.9c4.6,4.4,9.6,8.4,14.5,12.6
			c2.2,1.9,4.5,2.7,7.6,2.7c15.2-0.2,30.4-0.1,45.7-0.1c0.5,0,0.9,0,1.6-0.1c-2.2-1-4.1-1.8-6.1-2.7c-2.8-1.3-5.6-2.5-8.4-3.9
			c-1.9-0.9-3.6-2-5.4-3c-2.9-1.7-6-3.1-8.8-4.9c-7.5-4.5-15-8.8-22.5-13.2c-1.4-0.8-2.9-1.7-4.2-2.7c-2.5-1.9-5-3.9-7.5-5.9
			c-0.5-0.5-1-1-1.5-1.5c-2.6-2.4-5.4-4.7-7.7-7.3c-3.1-3.5-6-7.1-8.5-11c-2.5-3.9-3.3-8.4-3.2-13.1c0.1-4.2,1.6-7.7,4.1-10.8
			c3.9-4.6,8.9-7.9,14.2-10.8c0.6-0.3,1.1-0.6,1.7-0.9c-0.1-0.2-0.1-0.3-0.2-0.5c-2.2,0.7-4.5,1.5-6.7,2.1c-7.1,1.8-13,5.6-18,10.8
			c-6,6.3-8.6,13.9-7.4,22.6c0.8,5.4,2.9,10.4,5.5,15.2c0.9,1.6,1.9,3.2,2.9,4.8C37.2,68.7,37.9,69.6,38.6,70.5z M79.3,8.1
			c-4.4,0.7-8.8,1.2-12.7,3.5c-3.1,1.8-6.2,3.6-9.2,5.7c-3.8,2.7-6.8,6.2-8.8,10.4c-2.7,5.8-2,11.7,0.2,17.4
			c2.5,6.5,6.9,11.7,11.6,16.6c0.1,0.1,0.2,0,0.6,0c-0.3-0.6-0.5-1.1-0.7-1.5c-1-2.1-2.1-4.1-3-6.3c-0.8-2.1-1.8-4.2-2-6.4
			C54.6,41.3,56.6,35.7,61,31c5.9-6.5,13.5-10.5,21.3-13.8c12.4-5.2,25.6-7.9,38.5-11.6c0.9-0.3,1.8-0.7,2.7-1.1
			c0-0.1-0.1-0.2-0.1-0.4c-3.8,0.1-7.6,0.2-11.5,0.4c-4.3,0.2-8.6,0.5-12.9,0.8c-1.5,0.1-2.9,0.3-4.3,0.5c-0.2,0-0.4,0-0.5,0
			c-1.6,0.2-3.1,0.4-4.7,0.6c-0.4,0.1-0.7,0.1-1.1,0.2c-0.3,0-0.6,0.1-0.9,0.1C87.3,6.9,87,7,86.7,7c-0.4,0-0.7,0.1-1.1,0.1
			c-0.3,0.1-0.6,0.1-0.8,0.2c-0.3,0-0.5,0.1-0.8,0.1c-0.4,0.1-0.8,0.1-1.1,0.2c-0.3,0-0.5,0.1-0.8,0.1c-0.4,0.1-0.7,0.1-1.1,0.2
			c-0.3,0-0.5,0.1-0.8,0.1C79.9,8,79.6,8,79.3,8.1z M22,102.3c1.3,2.1,3,2.8,5.5,2.8c6.1-0.2,12.2-0.1,18.2-0.1c0.9,0,1.8-0.2,3-0.3
			c-0.4-0.5-0.7-0.8-0.9-1.1c-0.6-0.7-1.2-1.3-1.9-1.9c-6.4-5.6-12-12-16.8-19.1c-5.4-8-9.9-16.3-11.3-26C16.3,46,19,36.7,26.3,28.9
			c1.4-1.5,2.8-2.9,4.2-4.3c2.5-1.8,4.9-3.5,7.4-5.3c-0.1-0.1-0.1-0.2-0.2-0.4c-2,1.1-4.1,2.1-6.1,3.2c-2.9,1.9-5.9,3.8-8.7,5.9
			c-6.1,4.4-11.2,9.5-14.7,16.3C5,50.6,2.7,57,2.9,64.1C3.3,76,7.7,86.4,15.1,95.5c1,1.2,2.2,2.3,3.4,3.4
			C19.6,100,20.8,101.1,22,102.3z M185.8,22.6c0-6.9-2.4-12.6-8.6-16.2c-3.6-2.1-7.6-2.8-11.7-2.7c-3.6,0.1-7,0.7-10.2,2.4
			c-6.8,3.7-9.3,9.8-9.2,17.2c0.1,3.3,0.8,6.4,2.5,9.3c2.3,3.9,5.7,6.5,10.1,7.7c4.5,1.3,9.1,1.3,13.7,0.2
			C181,38.6,185.8,32.1,185.8,22.6z M239,40.6c0-5.8,0-11.4,0-17.1c1-0.3,1.9-0.1,2.7,0.9c4,5.1,8,10.2,12,15.3
			c0.3,0.4,0.7,0.9,1,0.9c1.9,0.1,3.9,0,5.8,0c-4.8-5.9-9.4-11.7-14.1-17.5c0.2-0.2,0.2-0.3,0.3-0.3c0.3-0.1,0.5-0.1,0.8-0.2
			c3.3-0.8,6.2-2.2,8.2-5.1c3.2-4.8,1.1-10.8-4.4-12.4c-1.1-0.3-2.3-0.6-3.5-0.6c-3.6,0-7.3,0-10.9,0.1c-0.9,0-1.9,0-2.7,0
			c0,12,0,24,0,36C235.8,40.6,237.5,40.6,239,40.6z M267.6,3.6c-0.3,12.5-0.6,24.7-0.9,36.9c1,0,2.2,0,3.4,0
			c-0.3-9.3-0.7-18.5-0.1-27.8c0.4,0.2,0.5,0.5,0.7,0.7c8.4,9.1,16.7,18.1,25.1,27.1c0.3,0.3,0.8,0.6,1.2,0.9
			c0.2-12.5,0.4-24.7,0.5-36.8c-0.9,0-2.1,0-3,0c0,9.1,0,18.2,0,27.3c-2.5-2.6-4.9-5.1-7.3-7.7c-6.1-6.5-12.2-13.1-18.3-19.6
			C268.7,4.3,268.1,4,267.6,3.6z M173.2,76.6c1.8,1.9,3.4,3.6,5,5.3c6.9,7.5,13.7,15,20.6,22.5c0.4,0.4,0.9,0.7,1.3,1
			c0.2-12.5,0.4-24.7,0.6-36.8c-0.9,0-2,0-3,0c0,9,0,18.1,0,27.4c-2-2.1-4-4.1-5.8-6.1c-6.6-7.1-13.1-14.1-19.7-21.2
			c-0.4-0.4-1-0.7-1.4-0.9c-0.3,12.5-0.6,24.6-0.9,36.8c1,0,2.1,0,3.2,0C173.2,95.3,173.2,86.1,173.2,76.6z M245.9,67.6
			c-0.3,12.6-0.6,24.8-0.9,36.9c1,0,2.1,0,3.2,0c0-9.3,0-18.5,0-27.9c0.3,0.3,0.5,0.4,0.7,0.6c8.3,9.1,16.7,18.2,25,27.2
			c0.3,0.4,0.8,0.6,1.3,0.9c0.2-12.5,0.4-24.7,0.5-36.8c-0.9,0-2,0-3,0c0,9.1,0,18.2,0,26.7c-1.4-1.2-3.1-2.6-4.6-4.2
			c-7-7.5-13.9-15-20.9-22.5C246.9,68.2,246.3,68,245.9,67.6z M193,4.6c0,0.3,0,0.5,0,0.8c0.1,4.7,0.2,9.4,0.3,14.1
			c0,3.2-0.2,6.4-0.1,9.6c0.3,6.7,3.7,10.6,10.1,11.9c0.7,0.1,1.4,0.2,2,0.3c4,0.3,7.9,0.2,11.4-1.9c4.7-2.8,6.3-7.2,6.5-12.4
			c0.2-4.7,0.3-9.5,0.5-14.2c0.1-2.7,0.3-5.4,0.4-8.1c-1.3,0-2.4,0-3.4,0c0,6.1,0,12.2,0,18.3c0,2.1-0.2,4.3-0.5,6.4
			c-0.6,3.8-2.1,7.2-6,8.7c-1.7,0.7-3.7,0.9-5.6,0.9c-6.3,0.1-10.3-3.2-10.8-9.6c-0.4-5.6-0.2-11.3-0.2-17c0-2.6,0.3-5.2,0.4-7.7
			C196.4,4.6,194.8,4.6,193,4.6z M331.3,104.6c1.1,0,2-0.1,2.9,0c0.8,0.1,1.1-0.2,1.3-0.9c1.4-4,3-8,4.4-12.1c0.3-0.7,0.6-1,1.4-1
			c3.7,0,7.5,0,11.2,0c0.8,0,1.1,0.2,1.4,1c1.5,4,3.1,8.1,4.8,12.1c0.1,0.4,0.5,0.8,0.8,0.9c1.6,0.1,3.3,0,4.9,0
			c-5.1-12.1-10.1-24-15.2-36c-0.1-0.3-0.7-0.8-0.9-0.8c-0.4,0.1-0.8,0.5-1,0.9c-3.2,7.1-6.3,14.3-9.5,21.4
			C335.8,94.9,333.6,99.7,331.3,104.6z M209.6,104.6c0.1-0.3,0.2-0.6,0.4-1c1.5-4,2.9-8,4.4-11.9c0.1-0.4,0.6-1,0.9-1
			c4.2-0.1,8.5,0,12.7,0c1.9,4.7,3.7,9.3,5.5,13.9c1.8,0,3.6,0,5.4,0c0-0.2-0.1-0.3-0.1-0.4c-5-11.7-10.1-23.5-15.1-35.2
			c-0.2-0.5-0.7-0.8-1.1-1.2c-0.3,0.4-0.8,0.7-1,1.1c-5.2,11.5-10.3,23-15.5,34.6c-0.2,0.3-0.3,0.7-0.4,1.1
			C207.1,104.6,208.3,104.6,209.6,104.6z M307.7,4.7c0,11.9,0,23.9,0,35.9c6.3,0,12.6,0,18.9,0c0-1,0-2,0-2.7
			c-4.7,0.2-9.4,0.3-14.1,0.5c0-5.3,0-10.4,0-15.3c4.3,0,8.5,0,12.6,0c0-0.9,0-1.9,0-2.9c-4.3,0.2-8.4,0.3-12.6,0.5
			c0-4.6,0-9,0-13.7c4.7,0.2,9.3,0.5,13.8,0.7c0-1.1,0-2.1,0-2.9c-3.2,0-6.3,0-9.4,0C313.9,4.7,310.8,4.7,307.7,4.7z M313.4,99.2
			c-1.6,0.9-3,2-4.7,2.7c-8.7,4.1-17.7-0.2-19.9-9.5c-0.9-3.6-0.8-7.2-0.2-10.9c2.2-12.4,15.3-14.5,22.1-8.9
			c0.7,0.6,1.4,1.2,2.2,1.8c0.4-1.5,0.7-2.9,1.1-4.4c-0.3-0.1-0.5-0.3-0.8-0.4c-4.6-1.9-9.4-2.5-14.2-1.8c-6.8,1-12.1,4.3-14.7,11
			c-2,5.3-1.9,10.7,0.2,15.9c1.7,4.2,4.7,7.3,9,8.9c5.8,2.2,11.7,2,17.5-0.1C313.3,102.8,313.8,101.9,313.4,99.2z M346.4,22.6
			c-0.3-0.6-0.6-0.9-0.8-1.3c-2.9-5.3-5.8-10.5-8.7-15.8c-0.2-0.4-0.6-1-0.9-1c-1.8-0.1-3.6,0-5.5,0c0.4,0.6,0.6,1,0.8,1.4
			c3.8,6.3,7.6,12.6,11.3,18.9c0.3,0.5,0.6,1.2,0.6,1.8c0.1,2.5,0,5,0,7.5c0,2.2,0,4.3,0,6.5c1.5,0,3.2,0,4.9,0c0-0.3,0-0.5,0-0.7
			c-0.1-4.4-0.3-8.8-0.3-13.3c0-0.9,0.2-1.9,0.7-2.7c3.7-6,7.4-12,11.1-18c0.2-0.4,0.5-0.8,0.8-1.3c-1.3,0-2.3-0.1-3.4,0
			c-0.4,0-1,0.4-1.2,0.8c-1.2,2.2-2.2,4.5-3.4,6.7C350.5,15.6,348.5,19,346.4,22.6z M133.3,86.9c4.7,0,9.1,0,13.6,0
			c0-0.9,0-1.9,0-2.9c-4.5,0.2-8.9,0.3-13.4,0.5c0-4.6,0-9,0-13.6c4.9,0.2,9.7,0.4,14.6,0.6c0-1,0-2,0-3c-6.5,0-12.9,0-19.2,0
			c0,12.1,0,24,0,36c1.7,0,3.3,0,4.9,0C133.7,98.6,133.5,92.8,133.3,86.9z M389.5,101.8c-4.7,0.2-9.5,0.4-14.3,0.6
			c0-11.4,0-22.6,0-33.8c-1.6,0-3.2,0-4.7,0c0,12,0,24,0,35.9c6.4,0,12.7,0,19.1,0C389.5,103.6,389.5,102.7,389.5,101.8z M134.3,4.6
			c0,3.6,0,7,0,10.5c0,7.9-0.1,15.7-0.2,23.6c0,1-0.3,2.1-0.6,3.1c-0.8,2.9-2.5,4.7-5.8,4.7c0.2,0.6,0.4,1.1,0.5,1.5
			c6.1-0.1,10.6-4.6,10.7-10.5c0-8.6,0-17.3,0-25.9c0-2.3,0-4.6,0-6.9C137.4,4.6,135.8,4.6,134.3,4.6z M155.2,68.6c0,12,0,24,0,36
			c1.6,0,3.3,0,4.8,0c0-12.1,0-24,0-36C158.4,68.6,156.8,68.6,155.2,68.6z M320.8,68.6c0,12,0,24,0,36c1.6,0,3.2,0,4.8,0
			c0-12,0-24,0-36C324,68.6,322.4,68.6,320.8,68.6z"/>
		<path class="st1" d="M18.5,98.9c-1.1-1.1-2.4-2.2-3.4-3.4C7.7,86.4,3.3,76,2.9,64.1C2.7,57,5,50.6,8.2,44.3
			c3.5-6.8,8.6-11.9,14.7-16.3c2.8-2,5.8-3.9,8.7-5.9c0.1,0.2,0.2,0.5,0.2,0.6c-0.4,0.7-0.8,1.3-1.2,1.9c-1.4,1.4-2.9,2.8-4.2,4.3
			c-7.3,7.8-10,17.1-8.5,27.6c1.4,9.7,5.9,18,11.3,26c4.8,7.1,10.3,13.5,16.8,19.1c0.7,0.6,1.3,1.3,1.9,1.9c0.3,0.3,0.5,0.6,0.9,1.1
			c-1.1,0.1-2,0.3-3,0.3c-6.1,0-12.2-0.1-18.2,0.1c-2.5,0.1-4.2-0.7-5.5-2.8c0.1-0.9,0.8-0.9,1.4-0.9c4.1-0.1,8.1-0.2,12.2-0.3
			c0.2,0,0.4,0,0.5,0c0.3-0.2,0.6-0.4,0.9-0.7c-0.3-0.2-0.5-0.6-0.9-0.7c-1-0.2-2-0.5-3.1-0.5C28.2,99.1,23.4,99,18.5,98.9z"/>
		<path class="st2" d="M61.3,68.2c2.5,2,4.9,4,7.5,5.9c1.3,1,2.8,1.8,4.2,2.7c7.5,4.4,15.1,8.7,22.5,13.2c2.9,1.7,6,3.1,8.8,4.9
			c1.8,1.1,3.6,2.1,5.4,3c2.8,1.4,5.6,2.6,8.4,3.9c1.9,0.9,3.9,1.7,6.1,2.7c-0.7,0-1.2,0.1-1.6,0.1c-15.2,0-30.4-0.1-45.7,0.1
			c-3,0-5.4-0.8-7.6-2.7c-4.8-4.2-9.9-8.1-14.5-12.6c-4.6-4.4-8.7-9.3-13-13.9c-0.1-0.2-0.2-0.4-0.2-0.6c0.4,0.3,1,0.5,1.3,0.9
			c2.1,2.2,4.1,4.5,6.2,6.7c0.9,1,1.6,1.3,2.4-0.1c0.2-0.4,0.7-0.6,1.1-0.8c4.5-2.7,9.1-5.5,13.8-8.3c-1.2-0.9-2.4-1.9-3.6-2.9
			c-0.6-0.5-1.3-0.9-1.9-1.4C60.9,68.8,61.2,68.4,61.3,68.2z"/>
		<path class="st3" d="M61.3,68.2c-0.1,0.2-0.3,0.6-0.3,0.7c0.6,0.5,1.2,0.9,1.9,1.4c1.2,1,2.4,1.9,3.6,2.9
			c-4.8,2.9-9.3,5.6-13.8,8.3c-0.4,0.2-0.9,0.4-1.1,0.8c-0.8,1.4-1.5,1.1-2.4,0.1c-2-2.3-4.1-4.5-6.2-6.7c-0.4-0.4-0.9-0.6-1.3-0.9
			c0,0,0,0,0,0c-0.1-1.9-1.7-2.9-2.7-4.2c0,0-0.2,0.1-0.4,0.1c0,0,0-0.1,0-0.1c-0.6-1-1.2-2-1.8-3c-0.1,0.1-0.2,0.2-0.3,0.3
			c-1-1.6-2-3.1-2.9-4.8c-2.6-4.8-4.8-9.8-5.5-15.2c-1.2-8.7,1.3-16.3,7.4-22.6c5-5.2,10.9-9,18-10.8c2.3-0.6,4.5-1.4,6.7-2.1
			c0.1,0.2,0.1,0.3,0.2,0.5c-0.6,0.3-1.1,0.6-1.7,0.9c-5.3,2.9-10.3,6.2-14.2,10.8c-2.6,3-4,6.6-4.1,10.8c-0.2,4.7,0.7,9.2,3.2,13.1
			c2.5,3.9,5.4,7.6,8.5,11c2.3,2.7,5.1,4.9,7.7,7.3C60.3,67.2,60.8,67.7,61.3,68.2z"/>
		<path class="st4" d="M86.7,7c0.3,0,0.5-0.1,0.8-0.1c0.2,0.2,0.4,0.5,0.6,0.7c0.1-0.3,0.2-0.5,0.3-0.8c0.4-0.1,0.7-0.1,1.1-0.2
			c0.2,0.2,0.5,0.7,0.7,0.7c0.9,0,1.8-0.1,2.7-0.3c0.5-0.1,0.9-0.6,1.3-1c0.2,0,0.4,0,0.5,0c0.4,0.2,0.9,0.6,1.3,0.5
			c4.6-0.2,9.2-0.5,13.7-0.8c0.6,0,1.3-0.2,1.9-0.2c1.8,0,3.6,0,5.4,0c0,0.1,0,0.3,0.1,0.4c-0.4,0.1-0.8,0.3-1.2,0.4
			c-3.8,0.9-7.6,1.7-11.4,2.8c-5,1.4-10.1,2.7-15,4.6c-5.3,2-10.4,4.6-15.5,7c-5.9,2.7-10.9,6.7-15.1,11.7
			c-3.1,3.7-4.4,8.2-4.7,12.8c-0.2,3.3,0.8,6.5,2.2,9.5c0.2,0.4,0.3,0.9,0.5,1.4c-0.1,0.1-0.2,0.1-0.4,0.2c-0.2-0.3-0.5-0.6-0.7-0.9
			c-1.3-2.1-2.6-4.2-3.9-6.2c-2.3-3.7-3.7-7.7-4-11.9C47.5,30.9,50,25.8,54,21.3c2.9-3.3,6.6-5.5,10.4-7.7c3.6-2.1,7.3-3.7,11.5-4.1
			c2.5-0.2,5-0.8,7.6-1.2c-0.3-0.3-0.4-0.5-0.6-0.8c0.4-0.1,0.8-0.1,1.1-0.2c0.1,0.2,0.3,0.5,0.4,0.7c0.1-0.3,0.3-0.6,0.4-0.8
			c0.3-0.1,0.6-0.1,0.8-0.2c0.2,0.3,0.4,0.5,0.5,0.8C86.4,7.6,86.6,7.3,86.7,7z"/>
		<path class="st5" d="M185.8,22.6c0,9.5-4.8,15.9-13.5,18c-4.6,1.1-9.1,1-13.7-0.2c-4.4-1.2-7.8-3.7-10.1-7.7
			c-1.7-2.9-2.4-6-2.5-9.3c-0.1-7.4,2.3-13.5,9.2-17.2c3.2-1.7,6.6-2.4,10.2-2.4c4.1-0.1,8.1,0.6,11.7,2.7
			C183.4,10.1,185.8,15.7,185.8,22.6z M151.3,22.2c0.2,2,0.3,3.6,0.5,5.2c0.2,1.1,0.5,2.1,0.9,3.2c2.4,6.5,8.7,9.9,15.9,8.7
			c5.8-1,9.5-4.3,11.2-9.9c1.3-4.3,1.3-8.8,0.1-13.1c-1.7-6.4-6-9.9-12.5-10.4c-7.6-0.6-13.2,3.3-15.2,10.5
			C151.6,18.4,151.5,20.5,151.3,22.2z"/>
		<path class="st5" d="M239,40.6c-1.6,0-3.2,0-4.8,0c0-12,0-24,0-36c0.8,0,1.8,0,2.7,0c3.6,0,7.3-0.1,10.9-0.1
			c1.2,0,2.4,0.3,3.5,0.6c5.5,1.6,7.6,7.7,4.4,12.4c-2,2.9-4.9,4.3-8.2,5.1c-0.3,0.1-0.5,0.1-0.8,0.2c-0.1,0-0.1,0.1-0.3,0.3
			c4.6,5.8,9.3,11.5,14.1,17.5c-1.9,0-3.9,0-5.8,0c-0.4,0-0.8-0.6-1-0.9c-4-5.1-8-10.2-12-15.3c-0.8-1-1.6-1.2-2.7-0.9
			C239,29.2,239,34.8,239,40.6z M239,6.8c0,1.8,0,3.5,0,5.2c0,1.7-0.1,3.4-0.1,5.1c0,4.4,0,4.4,4.4,4.3c2.5-0.1,4.8-0.7,6.7-2.4
			c2.3-2.1,2.9-4.7,2.2-7.6c-0.6-2.6-2.5-4.1-5-4.5C244.6,6.5,241.9,6.8,239,6.8z"/>
		<path class="st5" d="M267.6,3.6c0.4,0.3,1,0.6,1.4,1.1c6.1,6.5,12.2,13.1,18.3,19.6c2.4,2.6,4.8,5.1,7.3,7.7c0-9.2,0-18.2,0-27.3
			c0.9,0,2,0,3,0c-0.2,12.2-0.3,24.4-0.5,36.8c-0.4-0.3-0.9-0.5-1.2-0.9c-8.4-9-16.7-18.1-25.1-27.1c-0.2-0.2-0.4-0.5-0.7-0.7
			c-0.7,9.3-0.2,18.5,0.1,27.8c-1.2,0-2.4,0-3.4,0C267,28.3,267.3,16.1,267.6,3.6z"/>
		<path class="st5" d="M173.2,76.6c0,9.5,0,18.7,0,28c-1,0-2.2,0-3.2,0c0.3-12.2,0.6-24.4,0.9-36.8c0.4,0.3,1,0.5,1.4,0.9
			c6.6,7,13.1,14.1,19.7,21.2c1.9,2,3.8,4,5.8,6.1c0-9.3,0-18.4,0-27.4c1,0,2.1,0,3,0c-0.2,12.1-0.4,24.3-0.6,36.8
			c-0.5-0.3-1-0.6-1.3-1c-6.9-7.5-13.7-15-20.6-22.5C176.6,80.2,175,78.5,173.2,76.6z"/>
		<path class="st5" d="M245.9,67.6c0.5,0.3,1,0.6,1.4,1c7,7.5,13.9,15,20.9,22.5c1.5,1.6,3.2,3,4.6,4.2c0-8.6,0-17.7,0-26.7
			c1,0,2,0,3,0c-0.2,12.1-0.4,24.3-0.5,36.8c-0.4-0.3-0.9-0.5-1.3-0.9c-8.4-9.1-16.7-18.2-25-27.2c-0.2-0.2-0.4-0.4-0.7-0.6
			c0,9.4,0,18.6,0,27.9c-1,0-2.2,0-3.2,0C245.3,92.4,245.6,80.2,245.9,67.6z"/>
		<path class="st5" d="M193,4.6c1.7,0,3.3,0,5,0c-0.1,2.5-0.4,5.1-0.4,7.7c0,5.7-0.2,11.3,0.2,17c0.5,6.4,4.4,9.6,10.8,9.6
			c1.9,0,3.9-0.2,5.6-0.9c3.9-1.5,5.4-4.8,6-8.7c0.3-2.1,0.5-4.3,0.5-6.4c0.1-6.1,0-12.1,0-18.3c1,0,2.1,0,3.4,0
			c-0.1,2.7-0.3,5.4-0.4,8.1c-0.2,4.7-0.3,9.5-0.5,14.2c-0.2,5.1-1.9,9.6-6.5,12.4c-3.5,2.1-7.5,2.2-11.4,1.9
			c-0.7-0.1-1.4-0.1-2-0.3c-6.4-1.3-9.8-5.2-10.1-11.9c-0.2-3.2,0.1-6.4,0.1-9.6c0-4.7-0.2-9.4-0.3-14.1C193,5.2,193,4.9,193,4.6z"
			/>
		<path class="st5" d="M331.3,104.6c2.2-4.9,4.4-9.7,6.6-14.4c3.2-7.1,6.3-14.3,9.5-21.4c0.2-0.4,0.6-0.8,1-0.9
			c0.2-0.1,0.7,0.4,0.9,0.8c5.1,11.9,10.1,23.9,15.2,36c-1.6,0-3.2,0-4.9,0c-0.3,0-0.7-0.5-0.8-0.9c-1.6-4-3.2-8-4.8-12.1
			c-0.3-0.7-0.6-1-1.4-1c-3.7,0-7.5,0-11.2,0c-0.8,0-1.1,0.3-1.4,1c-1.5,4-3,8-4.4,12.1c-0.3,0.8-0.5,1-1.3,0.9
			C333.3,104.5,332.4,104.6,331.3,104.6z M347.1,75c-1.9,4.5-3.8,8.8-5.6,13.2c3.9,0,7.6,0,11.4,0C350.9,83.8,349.1,79.6,347.1,75z"
			/>
		<path class="st5" d="M209.6,104.6c-1.3,0-2.5,0-3.8,0c0.1-0.4,0.3-0.8,0.4-1.1c5.2-11.5,10.3-23.1,15.5-34.6
			c0.2-0.4,0.6-0.8,1-1.1c0.4,0.4,0.9,0.7,1.1,1.2c5.1,11.7,10.1,23.4,15.1,35.2c0.1,0.1,0.1,0.3,0.1,0.4c-1.8,0-3.6,0-5.4,0
			c-1.8-4.6-3.6-9.2-5.5-13.9c-4.3,0-8.5,0-12.7,0c-0.3,0-0.8,0.6-0.9,1c-1.5,4-3,7.9-4.4,11.9C209.8,104,209.7,104.3,209.6,104.6z
			 M227.2,88.2c-1.9-4.4-3.8-8.6-5.8-13.2c-2,4.6-3.8,8.8-5.6,13.2C219.7,88.2,223.4,88.2,227.2,88.2z"/>
		<path class="st5" d="M307.7,4.7c3.1,0,6.2,0,9.3,0c3.1,0,6.2,0,9.4,0c0,0.8,0,1.8,0,2.9c-4.5-0.2-9.1-0.5-13.8-0.7
			c0,4.7,0,9.1,0,13.7c4.2-0.2,8.3-0.3,12.6-0.5c0,1,0,2,0,2.9c-4.2,0-8.3,0-12.6,0c0,4.9,0,10,0,15.3c4.7-0.2,9.4-0.3,14.1-0.5
			c0,0.7,0,1.7,0,2.7c-6.3,0-12.6,0-18.9,0C307.7,28.6,307.7,16.6,307.7,4.7z"/>
		<path class="st5" d="M313.4,99.2c0.3,2.7-0.1,3.6-2.4,4.4c-5.8,2.1-11.7,2.3-17.5,0.1c-4.3-1.6-7.3-4.7-9-8.9
			c-2.1-5.2-2.2-10.6-0.2-15.9c2.5-6.7,7.8-10,14.7-11c4.9-0.7,9.7-0.1,14.2,1.8c0.3,0.1,0.6,0.3,0.8,0.4c-0.4,1.5-0.7,2.9-1.1,4.4
			c-0.8-0.7-1.5-1.3-2.2-1.8c-6.8-5.6-19.9-3.5-22.1,8.9c-0.6,3.6-0.7,7.3,0.2,10.9c2.2,9.3,11.3,13.6,19.9,9.5
			C310.4,101.2,311.9,100.2,313.4,99.2z"/>
		<path class="st5" d="M346.4,22.6c2.1-3.6,4.1-7.1,6-10.6c1.2-2.2,2.2-4.5,3.4-6.7c0.2-0.4,0.7-0.7,1.2-0.8c1-0.1,2.1,0,3.4,0
			c-0.3,0.5-0.6,0.9-0.8,1.3c-3.7,6-7.5,12-11.1,18c-0.5,0.8-0.7,1.8-0.7,2.7c0,4.4,0.2,8.8,0.3,13.3c0,0.2,0,0.4,0,0.7
			c-1.7,0-3.4,0-4.9,0c0-2.2,0-4.3,0-6.5c0-2.5,0.1-5,0-7.5c0-0.6-0.3-1.2-0.6-1.8c-3.8-6.3-7.6-12.6-11.3-18.9
			c-0.2-0.4-0.5-0.8-0.8-1.4c2,0,3.8-0.1,5.5,0c0.3,0,0.7,0.6,0.9,1c2.9,5.3,5.8,10.5,8.7,15.8C345.8,21.7,346,22.1,346.4,22.6z"/>
		<path class="st5" d="M133.3,86.9c0.2,5.8,0.3,11.7,0.5,17.6c-1.6,0-3.3,0-4.9,0c0-11.9,0-23.9,0-36c6.3,0,12.7,0,19.2,0
			c0,1,0,2,0,3c-4.8-0.2-9.6-0.4-14.6-0.6c0,4.6,0,9,0,13.6c4.4-0.2,8.9-0.3,13.4-0.5c0,1,0,2,0,2.9C142.5,86.9,138,86.9,133.3,86.9
			z"/>
		<path class="st5" d="M389.5,101.8c0,0.8,0,1.7,0,2.7c-6.3,0-12.7,0-19.1,0c0-11.9,0-23.9,0-35.9c1.5,0,3.2,0,4.7,0
			c0,11.1,0,22.3,0,33.8C380.1,102.2,384.8,102,389.5,101.8z"/>
		<path class="st5" d="M134.3,4.6c1.4,0,3.1,0,4.6,0c0,2.3,0,4.6,0,6.9c0,8.6,0,17.3,0,25.9c0,5.9-4.6,10.4-10.7,10.5
			c-0.1-0.4-0.3-0.8-0.5-1.5c3.3,0,5-1.8,5.8-4.7c0.3-1,0.5-2.1,0.6-3.1c0.1-7.9,0.1-15.7,0.2-23.6C134.3,11.6,134.3,8.2,134.3,4.6z
			"/>
		<path class="st6" d="M82.9,7.5c0.2,0.2,0.3,0.4,0.6,0.8c-2.6,0.4-5.1,0.9-7.6,1.2c-4.2,0.4-7.9,2-11.5,4.1
			C60.7,15.8,57,18,54,21.3c-4,4.5-6.5,9.7-6.2,15.8c0.2,4.3,1.7,8.3,4,11.9c1.3,2.1,2.6,4.2,3.9,6.2c0.2,0.3,0.5,0.6,0.7,0.9
			c0.1-0.1,0.2-0.1,0.4-0.2c-0.2-0.5-0.3-0.9-0.5-1.4c-1.3-3-2.4-6.2-2.2-9.5c0.4-4.7,1.6-9.1,4.7-12.8c4.2-5,9.1-9,15.1-11.7
			c5.2-2.4,10.2-5,15.5-7c4.9-1.9,10-3.2,15-4.6c3.8-1,7.6-1.8,11.4-2.8c0.4-0.1,0.8-0.3,1.2-0.4c0-0.1,0-0.3-0.1-0.4
			c-1.8,0-3.6,0-5.4,0c-0.6,0-1.3,0.2-1.9,0.2C105.2,6,100.6,6.2,96,6.5c-0.4,0-0.9-0.3-1.3-0.5c1.4-0.2,2.9-0.4,4.3-0.5
			c4.3-0.3,8.6-0.6,12.9-0.8c3.8-0.2,7.6-0.3,11.5-0.4c0,0.1,0.1,0.2,0.1,0.4c-0.9,0.4-1.8,0.8-2.7,1.1C107.9,9.3,94.7,12,82.3,17.2
			C74.4,20.5,66.9,24.5,61,31c-4.3,4.7-6.4,10.3-5.7,16.7c0.2,2.2,1.2,4.3,2,6.4c0.9,2.1,2,4.2,3,6.3c0.2,0.5,0.4,0.9,0.7,1.5
			c-0.3,0-0.5,0.1-0.6,0c-4.7-5-9.1-10.2-11.6-16.6c-2.2-5.8-2.9-11.6-0.2-17.4c2-4.2,5-7.7,8.8-10.4c2.9-2.1,6.1-3.9,9.2-5.7
			c3.9-2.3,8.3-2.9,12.7-3.5C79.6,8,79.9,8,80.2,7.9c0.3,0,0.5-0.1,0.8-0.1c0.5,0.4,0.9,0.6,1.1-0.2C82.3,7.6,82.6,7.6,82.9,7.5z"/>
		<path class="st5" d="M155.2,68.6c1.6,0,3.3,0,4.8,0c0,11.9,0,23.9,0,36c-1.5,0-3.2,0-4.8,0C155.2,92.6,155.2,80.6,155.2,68.6z"/>
		<path class="st1" d="M320.8,68.6c1.6,0,3.2,0,4.8,0c0,11.9,0,23.9,0,36c-1.6,0-3.2,0-4.8,0C320.8,92.6,320.8,80.6,320.8,68.6z"/>
		<path class="st5" d="M18.5,98.9c4.9,0.1,9.8,0.2,14.7,0.3c1,0,2.1,0.3,3.1,0.5c0.3,0.1,0.6,0.4,0.9,0.7c-0.3,0.2-0.6,0.5-0.9,0.7
			c-0.1,0.1-0.4,0-0.5,0c-4.1,0.1-8.1,0.2-12.2,0.3c-0.7,0-1.3-0.1-1.4,0.9C20.8,101.1,19.6,100,18.5,98.9z"/>
		<path class="st5" d="M30.5,24.6c0.4-0.6,0.8-1.3,1.2-1.9c0.1-0.1-0.1-0.4-0.2-0.6c2-1.1,4.1-2.1,6.1-3.2c0.1,0.1,0.1,0.2,0.2,0.4
			C35.4,21.1,33,22.9,30.5,24.6z"/>
		<path class="st6" d="M94.1,6c-0.4,0.3-0.8,0.8-1.3,1c-0.9,0.2-1.8,0.3-2.7,0.3c-0.2,0-0.5-0.5-0.7-0.7C91,6.4,92.6,6.2,94.1,6z"/>
		<path class="st2" d="M38.6,70.6c0.1,0,0.3-0.1,0.4-0.1c1,1.3,2.6,2.3,2.7,4.2C40.7,73.3,39.7,71.9,38.6,70.6z"/>
		<path class="st2" d="M36.5,67.7c0.1-0.1,0.2-0.2,0.3-0.3c0.6,1,1.2,2,1.8,3C37.9,69.6,37.2,68.7,36.5,67.7z"/>
		<path class="st6" d="M86.7,7c-0.2,0.3-0.4,0.6-0.6,0.9c-0.2-0.3-0.4-0.5-0.5-0.8C86,7.1,86.4,7,86.7,7z"/>
		<path class="st6" d="M88.4,6.8c-0.1,0.3-0.2,0.5-0.3,0.8c-0.2-0.2-0.4-0.5-0.6-0.7C87.8,6.8,88.1,6.8,88.4,6.8z"/>
		<path class="st6" d="M84.8,7.3c-0.1,0.3-0.3,0.6-0.4,0.8c-0.1-0.2-0.3-0.5-0.4-0.7C84.3,7.3,84.5,7.3,84.8,7.3z"/>
		<path class="st4" d="M82.1,7.6c-0.3,0.8-0.7,0.6-1.1,0.2C81.3,7.8,81.7,7.7,82.1,7.6z"/>
		<path class="st4" d="M80.2,7.9C79.9,8,79.6,8,79.3,8.1C79.6,8,79.9,8,80.2,7.9z"/>
		<path class="st0" d="M151.3,22.2c0.2-1.7,0.3-3.8,0.9-5.8c1.9-7.3,7.6-11.2,15.2-10.5c6.5,0.5,10.8,4,12.5,10.4
			c1.2,4.4,1.2,8.8-0.1,13.1c-1.6,5.6-5.3,8.9-11.2,9.9c-7.1,1.2-13.4-2.3-15.9-8.7c-0.4-1-0.7-2.1-0.9-3.2
			C151.6,25.8,151.5,24.2,151.3,22.2z"/>
		<path class="st7" d="M239,6.8c2.9,0,5.6-0.3,8.2,0.1c2.5,0.3,4.4,1.9,5,4.5c0.7,2.9,0.2,5.5-2.2,7.6c-1.9,1.7-4.2,2.3-6.7,2.4
			c-4.4,0.2-4.5,0.1-4.4-4.3c0-1.7,0.1-3.4,0.1-5.1C239,10.3,239,8.6,239,6.8z"/>
		<path class="st7" d="M347.1,75c2,4.6,3.8,8.8,5.7,13.2c-3.8,0-7.5,0-11.4,0C343.3,83.8,345.1,79.6,347.1,75z"/>
		<path class="st7" d="M227.2,88.2c-3.8,0-7.5,0-11.4,0c1.9-4.4,3.7-8.6,5.6-13.2C223.4,79.6,225.3,83.8,227.2,88.2z"/>
	</g>
</g>
</svg>
